<svg width="152" height="111" viewBox="0 0 152 111" fill="none" xmlns="http://www.w3.org/2000/svg">
<path d="M27.3087 81.5893H32.2155C36.0737 81.5893 39.2014 78.4616 39.2014 74.6034C39.2014 71.1269 41.7577 68.1794 45.1993 67.6878L47.6562 67.3368C52.5076 66.6437 56.1111 62.4889 56.1111 57.5883V54.3822C56.1111 49.4615 52.5312 45.2721 47.6707 44.5046L43.9089 43.9106C40.3633 43.3508 37.752 40.2948 37.752 36.7053C37.752 32.6766 34.4861 29.4107 30.4574 29.4107H25.7827C21.72 29.4107 18.4266 32.7042 18.4266 36.7668C18.4266 40.3363 15.864 43.3907 12.3488 44.011L10.2133 44.3879C5.46297 45.2262 2 49.3538 2 54.1775V57.3585C2 62.3771 5.71976 66.6184 10.6955 67.2731L14.3161 67.7495C17.774 68.2045 20.3591 71.152 20.3591 74.6397C20.3591 78.4778 23.4706 81.5893 27.3087 81.5893Z" fill="#FF886D" fill-opacity="0.9" stroke="#FF886D" stroke-width="4"/>
<path d="M74.4207 44.4448H55.7374V47.3274H62.1431V69H68.1218V47.3274H74.4207V44.4448ZM84.5034 52.2384C86.2828 52.2384 87.1902 53.8221 87.2258 56.9893L92.1369 56.4555C91.9945 54.0356 91.3184 52.2384 90.1084 51.0641C88.934 49.8897 86.9589 49.3025 84.1831 49.3025C80.6956 49.3025 78.3468 50.3167 77.1369 52.3452C76.1404 54.0534 75.6422 56.4021 75.6422 59.3915C75.6422 64.3381 77.0301 67.4342 79.8059 68.6797C80.9803 69.2135 82.4393 69.4804 84.1831 69.4804C86.9945 69.4804 88.9874 68.8577 90.1618 67.6121C91.3717 66.3665 92.0479 64.4804 92.1902 61.9537L87.2258 61.7402C87.1902 64.9431 86.2828 66.5445 84.5034 66.5445C83.4358 66.5445 82.6707 66.0285 82.208 64.9964C81.781 63.9644 81.5675 62.0961 81.5675 59.3915C81.5675 56.6512 81.781 54.7829 82.208 53.7865C82.6351 52.7544 83.4002 52.2384 84.5034 52.2384ZM102.541 50.7438V43.1103L96.5627 43.8577V69H102.541V53.6797C103.538 53.0036 104.516 52.6655 105.477 52.6655C106.474 52.6655 107.132 52.9502 107.452 53.5196C107.773 54.0534 107.933 54.9609 107.933 56.242V69H113.858V55.4947C113.858 53.6797 113.342 52.2028 112.31 51.0641C111.314 49.8897 109.872 49.3025 107.986 49.3025C106.136 49.3025 104.321 49.7829 102.541 50.7438ZM129.525 66.758L131.02 69H134.97V55.9751C134.97 51.5267 132.248 49.3025 126.803 49.3025C124.063 49.3025 122.105 49.8541 120.931 50.9573C119.757 52.0249 119.063 53.6975 118.849 55.9751L123.76 56.5623C123.903 53.6797 124.863 52.2384 126.643 52.2384C128.244 52.2384 129.045 53.3594 129.045 55.6014V57.5231L125.735 58.1637C122.924 58.6619 120.931 59.3559 119.757 60.2456C118.582 61.0996 117.995 62.363 117.995 64.0356C117.995 65.7082 118.493 67.0427 119.49 68.0391C120.522 69 121.874 69.4804 123.547 69.4804C126.038 69.4804 128.031 68.573 129.525 66.758ZM123.28 63.8754C123.28 62.0605 124.401 60.9039 126.643 60.4057L129.045 59.9253V64.6762C127.977 65.8149 126.963 66.3843 126.002 66.3843C124.187 66.3843 123.28 65.548 123.28 63.8754ZM150.251 65.637C149.397 66.0285 148.685 66.2242 148.115 66.2242C147.19 66.2242 146.727 65.6014 146.727 64.3559V52.8256H150.357V49.7829H146.727V45.1388L140.749 47.1673V49.7829H137.866V52.8256H140.749V63.1815C140.749 65.5658 141.176 67.1851 142.03 68.0391C142.991 69 144.361 69.4804 146.14 69.4804C147.955 69.4804 149.592 69.089 151.051 68.306L150.251 65.637Z" fill="#3D3A3A"/>
</svg>
